<svg width="632" height="83" viewBox="0 0 632 83" fill="none" xmlns="http://www.w3.org/2000/svg">
<path d="M13.7121 33.7711C18.6603 33.7711 23.8441 33.4193 28.7923 33.0676C30.9129 33.0676 32.798 32.7158 34.9186 32.7158C43.8725 32.0122 52.8263 31.3086 61.7802 30.6051C72.6191 29.9015 83.2224 28.8462 94.0612 28.1426C109.377 26.7355 124.693 25.6801 140.009 24.273C143.543 23.9212 147.078 23.9212 150.612 23.5694C159.566 22.8659 168.52 22.1623 177.474 21.8105C186.427 21.107 195.381 20.4034 204.335 20.0516C207.87 19.6998 211.404 19.348 214.938 19.348C229.076 18.6445 243.449 17.9409 257.587 17.2373C266.305 16.8856 275.024 16.5338 283.977 15.8302C287.512 15.8302 290.811 15.4784 294.345 15.4784C308.011 15.1266 321.914 14.7749 335.58 14.4231C349.246 14.0713 362.677 13.7195 376.344 13.3677C379.878 13.3677 383.412 13.3677 387.182 13.3677C396.136 13.3677 404.855 13.3677 413.808 13.3677C427.711 13.3677 441.377 13.3677 455.279 13.016C459.756 13.016 464.233 13.016 468.71 13.016C478.135 13.016 487.56 13.016 496.985 13.016C497.692 13.016 498.635 13.016 499.341 13.016C478.135 13.3677 456.693 13.7195 435.486 14.4231C426.532 14.7749 417.814 14.7749 408.86 15.1266C405.09 15.1266 401.085 15.1266 397.314 15.4784C384.355 15.8302 371.631 16.5338 358.671 16.8856C343.827 17.5891 328.982 17.9409 314.138 18.6445C311.546 18.6445 309.19 18.9963 306.598 18.9963C298.586 19.6998 290.811 20.0516 282.799 20.7552C266.777 21.8105 250.754 22.8659 234.731 23.9212C232.375 23.9212 230.019 24.273 227.662 24.6248C219.887 25.3283 211.875 26.3837 204.1 27.0873C189.962 28.4944 176.06 29.9015 161.922 31.3086C158.152 31.6604 154.146 32.364 150.376 32.7158C141.422 33.7711 132.469 34.8265 123.515 36.2336C112.205 37.6407 100.659 39.0479 89.3487 40.455C73.5616 42.5657 57.5389 44.6764 41.7518 46.7871C37.9818 47.1389 34.2117 47.8424 30.2061 48.1942C23.3728 49.2496 16.5396 50.3049 9.70642 51.3602C8.99953 51.3602 8.29265 52.0638 8.29265 53.4709C8.29265 54.5263 8.99953 55.5816 9.70642 55.5816C12.2983 55.5816 14.6546 55.9334 17.2465 55.9334C16.7753 57.6923 16.5396 58.7477 16.5396 59.803C16.5396 63.6726 18.6603 67.1905 21.4878 67.1905C41.0449 65.4316 60.3664 63.3209 79.9236 61.9137C96.8888 60.8584 113.854 59.4512 130.819 58.3959C149.434 56.9888 168.284 55.5816 186.899 54.5263C192.789 54.1745 198.68 53.8227 204.571 53.1192C206.22 53.1192 207.87 52.7674 209.755 52.7674C239.915 51.712 270.075 50.3049 300.236 49.2496C316.258 48.546 332.517 47.8424 348.539 47.4906C354.43 47.1389 360.085 47.1389 365.976 46.7871C396.843 46.0835 427.711 45.3799 458.578 44.6764C471.773 44.3246 484.968 43.9728 498.163 43.621C509.473 43.2692 520.784 43.2692 532.094 42.5657C541.519 42.2139 550.708 41.5103 560.133 41.1586C564.846 40.8068 569.559 40.8068 574.036 40.455C584.639 39.3996 595.242 38.3443 605.845 37.2889C605.138 38.6961 605.138 40.8068 605.374 42.2139C605.61 43.9728 606.317 45.3799 607.495 46.0835C608.437 46.7871 609.851 47.4906 610.794 46.7871C613.15 45.3799 615.506 43.9728 617.627 42.5657C617.627 42.5657 617.627 42.5657 617.391 42.5657C617.627 42.5657 617.627 42.2139 617.862 42.2139C618.098 42.2139 618.334 41.8621 618.334 41.8621H618.098C619.276 41.1586 620.454 40.455 621.868 39.3996C623.046 38.6961 624.46 37.6407 625.638 36.9372C627.052 35.8818 628.23 34.8265 629.644 33.7711C631.057 32.7158 632 29.9015 632 27.439C632 26.0319 631.764 24.9766 631.293 23.5694C630.822 22.1623 629.644 20.4034 628.466 20.0516C627.287 19.6998 626.109 19.348 624.931 19.348C624.696 19.348 624.46 19.348 624.224 19.348C623.517 19.348 622.575 19.348 621.868 19.6998C619.983 20.0516 618.334 20.4034 616.449 20.4034C615.035 20.4034 613.621 20.7552 611.972 20.7552C607.966 21.107 604.196 21.4587 600.19 22.1623C599.248 22.1623 598.07 22.5141 597.127 22.5141C597.598 21.8105 597.834 21.107 597.834 20.4034C598.07 19.6998 598.07 18.9963 598.07 18.2927C598.07 17.9409 598.07 17.2373 598.305 16.8856C598.305 16.182 598.305 15.4784 598.07 15.1266C598.07 15.1266 598.305 15.1266 598.305 14.7749C599.012 14.0713 599.719 13.3677 600.19 11.9606C600.661 10.9053 600.897 9.49813 600.897 8.091C600.897 6.68387 600.661 5.62852 600.19 4.22139C599.955 3.86961 599.719 3.16604 599.483 2.81426C598.776 1.75891 598.07 1.40713 597.363 1.05535C595.949 0.351783 594.299 0 592.65 0C591.236 0 590.058 0 588.644 0C586.759 0 584.874 0 582.989 0C580.397 0 577.57 0 574.978 0C567.909 0 560.84 0 553.771 0C547.174 0 540.341 0 533.743 0C527.617 0 521.726 0 515.6 0C491.33 0 467.296 0.351783 443.026 0.703565C424.883 1.05535 406.74 1.40713 388.596 1.40713C380.585 1.40713 372.338 1.75891 364.327 2.1107C346.183 2.81426 328.04 3.16604 309.896 3.86961C304.713 3.86961 299.529 4.22139 294.345 4.22139C291.282 4.22139 288.454 4.57317 285.391 4.57317C267.483 5.62852 249.576 6.68387 231.668 7.73922C226.249 8.091 220.829 8.44278 215.174 8.79456C212.111 8.79456 209.048 9.14635 205.985 9.49813C188.077 10.9053 170.405 12.3124 152.497 13.7195C143.307 14.4231 134.118 15.1266 124.929 16.182C109.141 17.5891 93.3544 18.9963 77.8029 20.7552C64.1365 22.1623 50.4701 23.2176 36.8036 24.273C34.683 24.6248 32.5623 24.6248 30.2061 24.9766C26.6716 25.3283 23.1372 25.3283 19.6028 25.6801C16.5396 27.0873 13.2408 27.0873 10.1777 27.0873C9.94205 25.6801 8.99953 24.6248 8.29265 24.9766C6.172 24.9766 4.28697 25.3283 2.16632 25.6801C1.22381 26.0319 0.281296 26.7355 0.0456682 28.1426C-0.18996 29.9015 0.516924 31.6604 1.45944 32.0122C2.40195 32.364 3.34446 32.7158 4.28697 33.0676C5.22948 33.4193 5.93637 33.4193 6.87888 33.4193C9.23516 33.7711 11.3558 33.7711 13.7121 33.7711ZM565.082 22.5141C567.909 22.5141 570.972 22.5141 573.8 22.5141C574.035 23.5694 574.507 24.273 574.978 24.9766C573.8 24.9766 572.622 25.3283 571.679 25.3283C569.559 25.3283 567.438 25.6801 565.317 25.6801C555.892 26.0319 546.703 26.7355 537.278 27.0873C533.036 27.439 528.795 27.7908 524.554 27.7908C517.956 27.7908 511.123 28.1426 504.525 28.1426C489.209 28.4944 474.129 28.8462 458.813 29.198C429.124 29.9015 399.671 30.6051 369.982 31.3086C348.775 31.6604 327.569 32.7158 306.362 33.7711C274.552 35.1783 242.507 36.2336 210.697 37.6407C204.335 37.9925 197.973 38.3443 191.611 39.0479C173.468 40.455 155.325 41.5103 137.181 42.9175C119.509 44.3246 101.601 45.3799 83.9292 46.7871C82.2798 46.7871 80.6304 47.1389 78.9811 47.1389C83.6936 46.4353 88.6418 46.0835 93.3544 45.3799C110.084 43.621 126.814 41.5103 143.543 39.7514C149.434 39.0479 155.325 38.3443 160.98 37.6407C164.043 37.2889 167.106 36.9372 169.933 36.9372C187.606 35.53 205.042 33.7711 222.479 32.364C225.777 32.0122 229.312 31.6604 232.611 31.3086C237.559 30.9569 242.507 30.6051 247.219 30.6051C265.127 29.5497 283.035 28.4944 300.943 27.439C304.948 27.0873 308.954 27.0873 312.724 26.7355C313.667 26.7355 314.845 26.7355 315.787 26.7355C318.615 26.7355 321.442 26.7355 324.034 26.3837C341.942 25.6801 360.085 25.3283 377.993 24.6248C386.24 24.273 394.487 23.9212 402.734 23.9212C429.36 23.5694 456.221 23.2176 482.847 22.8659C510.652 22.8659 537.984 22.5141 565.082 22.5141Z" fill="#136BB9"/>
<path d="M49.0122 83.0002C49.7246 83.0002 50.302 82.1155 50.302 81.024C50.302 79.9326 49.7246 79.0479 49.0122 79.0479C48.2999 79.0479 47.7224 79.9326 47.7224 81.024C47.7224 82.1155 48.2999 83.0002 49.0122 83.0002Z" fill="#136BB9"/>
</svg>
